# xmcd
#
# Track frame offsets:
#	150
#	14117
#	28355
#	46242
#	59897
#	72142
#	88142
#	100260
#	112447
#	125702
#	139302
#	156175
#
# Disc length: 2319 seconds
#
# Revision: 1
# Processed by: cddbd v1.5.2PL0 Copyright (c) Steve Scherf et al.
# Submitted via: audiograbber 1.83.01
#
DISCID=c1090d0c
DTITLE=Don Nix - I Don't Want No Trouble
DYEAR=2006
DGENRE=Blues
TTITLE0=Hole In The Sky
TTITLE1=One Step Ahead Of The Blues
TTITLE2=Hurt Somebody
TTITLE3=Memphis Man
TTITLE4=Smack Dab In The Middle
TTITLE5=Let The Wind Blow
TTITLE6=Just About Had It
TTITLE7=Subject To Change
TTITLE8=Crazy From The Heat
TTITLE9=Hungry
TTITLE10=Addicted To You
TTITLE11=Getting On Board
EXTD=
EXTT0=
EXTT1=
EXTT2=
EXTT3=
EXTT4=
EXTT5=
EXTT6=
EXTT7=
EXTT8=
EXTT9=
EXTT10=
EXTT11=
PLAYORDER=
